<svg viewBox="0 0 900 440" xmlns="http://www.w3.org/2000/svg">

  <defs>
    <linearGradient id="bgGrad" x1="0%" y1="0%" x2="100%" y2="100%">
      <stop offset="0%" stop-color="#050508"/>
      <stop offset="55%" stop-color="#0A0A0F"/>
      <stop offset="100%" stop-color="#12081f"/>
    </linearGradient>
    <filter id="csGlow" x="-60%" y="-60%" width="220%" height="220%">
      <feGaussianBlur stdDeviation="6" result="blur"/>
      <feMerge>
        <feMergeNode in="blur"/>
        <feMergeNode in="SourceGraphic"/>
      </feMerge>
    </filter>
    <filter id="softGlow" x="-60%" y="-60%" width="220%" height="220%">
      <feGaussianBlur stdDeviation="2.4" result="b"/>
      <feMerge><feMergeNode in="b"/><feMergeNode in="SourceGraphic"/></feMerge>
    </filter>
    <linearGradient id="lineFade" x1="0%" y1="0%" x2="100%" y2="0%">
      <stop offset="0%" stop-color="#8B5CF6" stop-opacity="0"/>
      <stop offset="50%" stop-color="#A855F7" stop-opacity="1"/>
      <stop offset="100%" stop-color="#8B5CF6" stop-opacity="0"/>
    </linearGradient>
  </defs>
<rect width="900" height="440" rx="10" fill="url(#bgGrad)"/>
<circle cx="246.5" cy="214.8" r="0.59" fill="#F5F5F7" opacity="0.47"/>
<circle cx="106.4" cy="352.9" r="1.55" fill="#C4B5FD" opacity="0.81"><animate attributeName="opacity" values="0.81;0.31000000000000005;0.81" dur="3.64s" repeatCount="indefinite"/></circle>
<circle cx="124.4" cy="347.5" r="1.31" fill="#C4B5FD" opacity="0.39"/>
<circle cx="550.7" cy="65.7" r="0.56" fill="#A855F7" opacity="0.27"/>
<circle cx="695.4" cy="419.9" r="0.6" fill="#A855F7" opacity="0.31"/>
<circle cx="349.0" cy="382.6" r="1.32" fill="#C4B5FD" opacity="0.68"/>
<circle cx="726.7" cy="281.9" r="1.15" fill="#A855F7" opacity="0.29"/>
<circle cx="317.4" cy="274.6" r="0.52" fill="#C4B5FD" opacity="0.57"/>
<circle cx="191.2" cy="170.4" r="0.92" fill="#C4B5FD" opacity="0.63"><animate attributeName="opacity" values="0.63;0.13;0.63" dur="3.08s" repeatCount="indefinite"/></circle>
<circle cx="791.2" cy="268.6" r="0.53" fill="#C4B5FD" opacity="0.81"/>
<circle cx="692.3" cy="141.5" r="0.68" fill="#A855F7" opacity="0.26"><animate attributeName="opacity" values="0.26;0.05;0.26" dur="4.37s" repeatCount="indefinite"/></circle>
<circle cx="95.6" cy="273.6" r="1.13" fill="#A855F7" opacity="0.49"/>
<circle cx="182.8" cy="120.9" r="0.77" fill="#C4B5FD" opacity="0.66"/>
<circle cx="28.7" cy="432.6" r="1.16" fill="#A855F7" opacity="0.42"><animate attributeName="opacity" values="0.42;0.05;0.42" dur="3.6s" repeatCount="indefinite"/></circle>
<circle cx="704.3" cy="390.3" r="0.57" fill="#A855F7" opacity="0.34"/>
<circle cx="150.0" cy="291.3" r="1.23" fill="#A855F7" opacity="0.71"/>
<circle cx="251.4" cy="335.2" r="1.47" fill="#C4B5FD" opacity="0.36"/>
<circle cx="68.4" cy="258.9" r="1.42" fill="#F5F5F7" opacity="0.7"/>
<circle cx="394.6" cy="252.3" r="1.39" fill="#C4B5FD" opacity="0.86"/>
<circle cx="5.0" cy="182.3" r="0.54" fill="#A855F7" opacity="0.8"/>
<circle cx="528.4" cy="28.5" r="1.5" fill="#F5F5F7" opacity="0.4"><animate attributeName="opacity" values="0.4;0.05;0.4" dur="2.4s" repeatCount="indefinite"/></circle>
<circle cx="706.2" cy="250.3" r="0.81" fill="#A855F7" opacity="0.45"/>
<circle cx="751.9" cy="168.6" r="0.56" fill="#C4B5FD" opacity="0.75"/>
<circle cx="806.2" cy="248.4" r="0.92" fill="#F5F5F7" opacity="0.79"><animate attributeName="opacity" values="0.79;0.29000000000000004;0.79" dur="4.39s" repeatCount="indefinite"/></circle>
<circle cx="241.2" cy="365.8" r="0.66" fill="#F5F5F7" opacity="0.46"/>
<circle cx="667.2" cy="293.6" r="1.15" fill="#A855F7" opacity="0.75"/>
<circle cx="716.0" cy="369.2" r="1.09" fill="#F5F5F7" opacity="0.34"/>
<circle cx="649.0" cy="425.1" r="1.22" fill="#C4B5FD" opacity="0.43"/>
<circle cx="869.8" cy="273.4" r="1.32" fill="#A855F7" opacity="0.51"/>
<circle cx="21.4" cy="56.7" r="1.09" fill="#F5F5F7" opacity="0.8"/>
<circle cx="497.3" cy="146.6" r="1.5" fill="#A855F7" opacity="0.75"/>
<circle cx="779.5" cy="353.8" r="1.49" fill="#C4B5FD" opacity="0.33"/>
<circle cx="660.5" cy="343.0" r="0.69" fill="#C4B5FD" opacity="0.64"/>
<circle cx="761.0" cy="205.2" r="0.62" fill="#C4B5FD" opacity="0.84"/>
<circle cx="314.3" cy="410.6" r="0.87" fill="#F5F5F7" opacity="0.88"/>
<circle cx="678.9" cy="371.9" r="1.04" fill="#C4B5FD" opacity="0.35"/>
<circle cx="355.9" cy="380.3" r="1.19" fill="#F5F5F7" opacity="0.26"><animate attributeName="opacity" values="0.26;0.05;0.26" dur="2.74s" repeatCount="indefinite"/></circle>
<circle cx="811.9" cy="283.0" r="1.08" fill="#F5F5F7" opacity="0.54"/>
<circle cx="309.2" cy="130.9" r="1.54" fill="#C4B5FD" opacity="0.82"/>
<circle cx="258.4" cy="209.3" r="1.59" fill="#C4B5FD" opacity="0.59"/>
<circle cx="545.5" cy="149.8" r="1.19" fill="#F5F5F7" opacity="0.52"/>
<circle cx="700.3" cy="367.4" r="0.93" fill="#A855F7" opacity="0.73"/>
<circle cx="94.6" cy="363.6" r="1.43" fill="#F5F5F7" opacity="0.49"/>
<circle cx="402.1" cy="195.3" r="1.18" fill="#C4B5FD" opacity="0.8"/>
<circle cx="344.4" cy="217.7" r="0.81" fill="#F5F5F7" opacity="0.42"/>
<circle cx="69.6" cy="69.0" r="0.52" fill="#C4B5FD" opacity="0.6"/>
<circle cx="846.4" cy="407.1" r="0.59" fill="#A855F7" opacity="0.72"/>
<circle cx="404.0" cy="181.7" r="1.52" fill="#C4B5FD" opacity="0.86"/>
<circle cx="251.7" cy="217.8" r="1.24" fill="#A855F7" opacity="0.45"/>
<circle cx="444.5" cy="363.7" r="1.22" fill="#A855F7" opacity="0.36"/>
<circle cx="307.6" cy="305.4" r="0.91" fill="#C4B5FD" opacity="0.47"/>
<circle cx="256.0" cy="99.0" r="1.22" fill="#F5F5F7" opacity="0.74"><animate attributeName="opacity" values="0.74;0.24;0.74" dur="4.49s" repeatCount="indefinite"/></circle>
<circle cx="617.0" cy="120.7" r="1.24" fill="#A855F7" opacity="0.65"/>
<circle cx="99.2" cy="245.3" r="1.36" fill="#A855F7" opacity="0.75"/>
<circle cx="403.7" cy="105.5" r="0.97" fill="#A855F7" opacity="0.4"/>
<circle cx="836.0" cy="322.3" r="1.58" fill="#A855F7" opacity="0.41"/>
<circle cx="820.4" cy="364.6" r="1.05" fill="#F5F5F7" opacity="0.59"><animate attributeName="opacity" values="0.59;0.08999999999999997;0.59" dur="3.27s" repeatCount="indefinite"/></circle>
<circle cx="29.4" cy="92.3" r="1.23" fill="#A855F7" opacity="0.83"/>
<circle cx="236.7" cy="42.7" r="0.75" fill="#C4B5FD" opacity="0.39"/>
<circle cx="206.4" cy="380.9" r="1.09" fill="#C4B5FD" opacity="0.36"/>
<circle cx="586.6" cy="250.0" r="1.05" fill="#F5F5F7" opacity="0.82"/>
<circle cx="547.3" cy="209.4" r="1.0" fill="#A855F7" opacity="0.88"/>
<circle cx="373.2" cy="103.4" r="1.41" fill="#A855F7" opacity="0.42"/>
<circle cx="478.6" cy="209.7" r="0.56" fill="#A855F7" opacity="0.57"/>
<circle cx="747.4" cy="387.8" r="1.39" fill="#A855F7" opacity="0.68"/>
<circle cx="167.2" cy="152.9" r="1.4" fill="#F5F5F7" opacity="0.47"/>
<circle cx="850.9" cy="413.1" r="0.96" fill="#C4B5FD" opacity="0.51"><animate attributeName="opacity" values="0.51;0.05;0.51" dur="4.38s" repeatCount="indefinite"/></circle>
<circle cx="740.1" cy="86.0" r="1.19" fill="#C4B5FD" opacity="0.5"/>
<circle cx="398.4" cy="104.3" r="1.4" fill="#C4B5FD" opacity="0.61"/>
<circle cx="841.3" cy="96.6" r="1.29" fill="#A855F7" opacity="0.69"/>
<path d="M14,34 L14,14 L34,14" stroke="#A855F7" stroke-width="1.4" fill="none" opacity="0.85"/>
<path d="M866,14 L886,14 L886,34" stroke="#A855F7" stroke-width="1.4" fill="none" opacity="0.85"/>
<path d="M886,406 L886,426 L866,426" stroke="#A855F7" stroke-width="1.4" fill="none" opacity="0.85"/>
<path d="M34,426 L14,426 L14,406" stroke="#A855F7" stroke-width="1.4" fill="none" opacity="0.85"/>
<text x="34" y="42" font-family="'JetBrains Mono','Fira Code','Consolas',monospace" font-size="15" font-weight="700" fill="#F5F5F7" letter-spacing="4">SKILL CONSTELLATION</text>
<line x1="34" y1="54" x2="866" y2="54" stroke="url(#lineFade)" stroke-width="1"/>

<line x1="450.0" y1="230.0" x2="450.0" y2="65.0" stroke="#8B5CF6" stroke-width="1" opacity="0.35"/><line x1="450.0" y1="230.0" x2="556.1" y2="103.6" stroke="#8B5CF6" stroke-width="1" opacity="0.35"/><line x1="450.0" y1="230.0" x2="612.5" y2="201.3" stroke="#8B5CF6" stroke-width="1" opacity="0.35"/><line x1="450.0" y1="230.0" x2="592.9" y2="312.5" stroke="#8B5CF6" stroke-width="1" opacity="0.35"/><line x1="450.0" y1="230.0" x2="506.4" y2="385.0" stroke="#8B5CF6" stroke-width="1" opacity="0.35"/><line x1="450.0" y1="230.0" x2="393.6" y2="385.0" stroke="#8B5CF6" stroke-width="1" opacity="0.35"/><line x1="450.0" y1="230.0" x2="307.1" y2="312.5" stroke="#8B5CF6" stroke-width="1" opacity="0.35"/><line x1="450.0" y1="230.0" x2="287.5" y2="201.3" stroke="#8B5CF6" stroke-width="1" opacity="0.35"/><line x1="450.0" y1="230.0" x2="343.9" y2="103.6" stroke="#8B5CF6" stroke-width="1" opacity="0.35"/>
<circle cx="450.0" cy="230.0" r="30" fill="#6D28D9" opacity="0.35" filter="url(#csGlow)">
  <animate attributeName="r" values="30;34;30" dur="3.2s" repeatCount="indefinite"/>
</circle>
<circle cx="450.0" cy="230.0" r="16" fill="#A855F7" filter="url(#softGlow)"/>
<text x="450.0" y="235.0" text-anchor="middle" font-family="'JetBrains Mono','Fira Code','Consolas',monospace" font-size="11" font-weight="700" fill="#050508">AI</text>
<text x="450.0" y="272.0" text-anchor="middle" font-family="'JetBrains Mono','Fira Code','Consolas',monospace" font-size="12" font-weight="700" fill="#A855F7" letter-spacing="2">AI SYSTEMS</text>


<circle cx="450.0" cy="65.0" r="5.5" fill="#A855F7" filter="url(#softGlow)">
  <animate attributeName="opacity" values="1;0.5;1" dur="2.4s" repeatCount="indefinite"/>
</circle>
<text x="450.0" y="51.0" text-anchor="middle" font-family="'JetBrains Mono','Fira Code','Consolas',monospace" font-size="12" fill="#F5F5F7">Python</text>
<circle cx="556.1" cy="103.6" r="5.5" fill="#A855F7" filter="url(#softGlow)">
  <animate attributeName="opacity" values="1;0.5;1" dur="2.9s" repeatCount="indefinite"/>
</circle>
<text x="556.1" y="89.6" text-anchor="middle" font-family="'JetBrains Mono','Fira Code','Consolas',monospace" font-size="12" fill="#F5F5F7">LLMs</text>
<circle cx="612.5" cy="201.3" r="5.5" fill="#A855F7" filter="url(#softGlow)">
  <animate attributeName="opacity" values="1;0.5;1" dur="3.4s" repeatCount="indefinite"/>
</circle>
<text x="612.5" y="187.3" text-anchor="middle" font-family="'JetBrains Mono','Fira Code','Consolas',monospace" font-size="12" fill="#F5F5F7">RAG</text>
<circle cx="592.9" cy="312.5" r="5.5" fill="#A855F7" filter="url(#softGlow)">
  <animate attributeName="opacity" values="1;0.5;1" dur="3.9s" repeatCount="indefinite"/>
</circle>
<text x="592.9" y="298.5" text-anchor="middle" font-family="'JetBrains Mono','Fira Code','Consolas',monospace" font-size="12" fill="#F5F5F7">Automation</text>
<circle cx="506.4" cy="385.0" r="5.5" fill="#A855F7" filter="url(#softGlow)">
  <animate attributeName="opacity" values="1;0.5;1" dur="2.4s" repeatCount="indefinite"/>
</circle>
<text x="506.4" y="371.0" text-anchor="middle" font-family="'JetBrains Mono','Fira Code','Consolas',monospace" font-size="12" fill="#F5F5F7">FastAPI</text>
<circle cx="393.6" cy="385.0" r="5.5" fill="#A855F7" filter="url(#softGlow)">
  <animate attributeName="opacity" values="1;0.5;1" dur="2.9s" repeatCount="indefinite"/>
</circle>
<text x="393.6" y="371.0" text-anchor="middle" font-family="'JetBrains Mono','Fira Code','Consolas',monospace" font-size="12" fill="#F5F5F7">React</text>
<circle cx="307.1" cy="312.5" r="5.5" fill="#A855F7" filter="url(#softGlow)">
  <animate attributeName="opacity" values="1;0.5;1" dur="3.4s" repeatCount="indefinite"/>
</circle>
<text x="307.1" y="298.5" text-anchor="middle" font-family="'JetBrains Mono','Fira Code','Consolas',monospace" font-size="12" fill="#F5F5F7">APIs</text>
<circle cx="287.5" cy="201.3" r="5.5" fill="#A855F7" filter="url(#softGlow)">
  <animate attributeName="opacity" values="1;0.5;1" dur="3.9s" repeatCount="indefinite"/>
</circle>
<text x="287.5" y="187.3" text-anchor="middle" font-family="'JetBrains Mono','Fira Code','Consolas',monospace" font-size="12" fill="#F5F5F7">Databases</text>
<circle cx="343.9" cy="103.6" r="5.5" fill="#A855F7" filter="url(#softGlow)">
  <animate attributeName="opacity" values="1;0.5;1" dur="2.4s" repeatCount="indefinite"/>
</circle>
<text x="343.9" y="89.6" text-anchor="middle" font-family="'JetBrains Mono','Fira Code','Consolas',monospace" font-size="12" fill="#F5F5F7">n8n</text>
</svg>