<svg viewBox="0 0 1000 260" xmlns="http://www.w3.org/2000/svg">

  <defs>
    <linearGradient id="bgGrad" x1="0%" y1="0%" x2="100%" y2="100%">
      <stop offset="0%" stop-color="#050508"/>
      <stop offset="55%" stop-color="#0A0A0F"/>
      <stop offset="100%" stop-color="#12081f"/>
    </linearGradient>
    <filter id="jGlow" x="-60%" y="-60%" width="220%" height="220%">
      <feGaussianBlur stdDeviation="6" result="blur"/>
      <feMerge>
        <feMergeNode in="blur"/>
        <feMergeNode in="SourceGraphic"/>
      </feMerge>
    </filter>
    <filter id="softGlow" x="-60%" y="-60%" width="220%" height="220%">
      <feGaussianBlur stdDeviation="2.4" result="b"/>
      <feMerge><feMergeNode in="b"/><feMergeNode in="SourceGraphic"/></feMerge>
    </filter>
    <linearGradient id="lineFade" x1="0%" y1="0%" x2="100%" y2="0%">
      <stop offset="0%" stop-color="#8B5CF6" stop-opacity="0"/>
      <stop offset="50%" stop-color="#A855F7" stop-opacity="1"/>
      <stop offset="100%" stop-color="#8B5CF6" stop-opacity="0"/>
    </linearGradient>
  </defs>
<rect width="1000" height="260" rx="10" fill="url(#bgGrad)"/>
<circle cx="353.0" cy="112.4" r="1.0" fill="#C4B5FD" opacity="0.47"/>
<circle cx="614.6" cy="204.4" r="1.22" fill="#F5F5F7" opacity="0.87"/>
<circle cx="961.8" cy="125.4" r="1.1" fill="#A855F7" opacity="0.85"/>
<circle cx="232.2" cy="135.9" r="0.89" fill="#F5F5F7" opacity="0.87"/>
<circle cx="715.0" cy="93.1" r="0.88" fill="#F5F5F7" opacity="0.62"/>
<circle cx="837.9" cy="234.6" r="0.54" fill="#A855F7" opacity="0.47"/>
<circle cx="508.2" cy="208.9" r="0.61" fill="#F5F5F7" opacity="0.82"/>
<circle cx="842.9" cy="59.1" r="1.32" fill="#C4B5FD" opacity="0.75"/>
<circle cx="869.4" cy="225.5" r="1.39" fill="#A855F7" opacity="0.78"/>
<circle cx="564.9" cy="126.0" r="1.12" fill="#C4B5FD" opacity="0.51"/>
<circle cx="223.2" cy="32.7" r="1.43" fill="#A855F7" opacity="0.5"/>
<circle cx="981.5" cy="144.6" r="0.99" fill="#C4B5FD" opacity="0.89"/>
<circle cx="759.4" cy="22.8" r="1.06" fill="#A855F7" opacity="0.65"/>
<circle cx="436.1" cy="235.5" r="0.54" fill="#C4B5FD" opacity="0.42"/>
<circle cx="940.0" cy="233.2" r="1.51" fill="#A855F7" opacity="0.66"/>
<circle cx="576.3" cy="57.3" r="0.97" fill="#C4B5FD" opacity="0.89"/>
<circle cx="470.0" cy="54.1" r="0.61" fill="#C4B5FD" opacity="0.72"/>
<circle cx="393.2" cy="71.3" r="0.5" fill="#F5F5F7" opacity="0.33"/>
<circle cx="266.1" cy="39.4" r="1.31" fill="#F5F5F7" opacity="0.79"/>
<circle cx="809.2" cy="137.1" r="1.12" fill="#F5F5F7" opacity="0.26"><animate attributeName="opacity" values="0.26;0.05;0.26" dur="2.55s" repeatCount="indefinite"/></circle>
<circle cx="543.1" cy="164.2" r="0.55" fill="#C4B5FD" opacity="0.65"><animate attributeName="opacity" values="0.65;0.15000000000000002;0.65" dur="2.48s" repeatCount="indefinite"/></circle>
<circle cx="91.9" cy="17.6" r="1.1" fill="#C4B5FD" opacity="0.41"/>
<circle cx="549.5" cy="196.1" r="1.18" fill="#F5F5F7" opacity="0.89"/>
<circle cx="344.0" cy="17.1" r="0.63" fill="#A855F7" opacity="0.52"/>
<circle cx="757.6" cy="154.6" r="0.57" fill="#A855F7" opacity="0.58"/>
<circle cx="454.1" cy="8.5" r="1.39" fill="#F5F5F7" opacity="0.59"/>
<circle cx="289.3" cy="181.6" r="1.05" fill="#A855F7" opacity="0.74"/>
<circle cx="169.6" cy="9.7" r="0.61" fill="#A855F7" opacity="0.55"/>
<circle cx="636.9" cy="176.9" r="1.26" fill="#C4B5FD" opacity="0.27"/>
<circle cx="678.2" cy="14.3" r="0.79" fill="#F5F5F7" opacity="0.56"/>
<circle cx="112.2" cy="135.3" r="1.15" fill="#C4B5FD" opacity="0.56"/>
<circle cx="577.8" cy="107.8" r="1.25" fill="#C4B5FD" opacity="0.83"/>
<circle cx="973.3" cy="29.9" r="1.39" fill="#A855F7" opacity="0.51"/>
<circle cx="361.2" cy="31.4" r="1.53" fill="#C4B5FD" opacity="0.81"/>
<circle cx="53.8" cy="150.9" r="0.56" fill="#A855F7" opacity="0.5"/>
<circle cx="291.4" cy="121.2" r="1.23" fill="#A855F7" opacity="0.78"/>
<path d="M14,34 L14,14 L34,14" stroke="#A855F7" stroke-width="1.4" fill="none" opacity="0.85"/>
<path d="M966,14 L986,14 L986,34" stroke="#A855F7" stroke-width="1.4" fill="none" opacity="0.85"/>
<path d="M986,226 L986,246 L966,246" stroke="#A855F7" stroke-width="1.4" fill="none" opacity="0.85"/>
<path d="M34,246 L14,246 L14,226" stroke="#A855F7" stroke-width="1.4" fill="none" opacity="0.85"/>
<text x="34" y="40" font-family="'JetBrains Mono','Fira Code','Consolas',monospace" font-size="15" font-weight="700" fill="#F5F5F7" letter-spacing="4">DEVELOPER JOURNEY // ORBITAL ROUTE</text>
<line x1="34" y1="52" x2="966" y2="52" stroke="url(#lineFade)" stroke-width="1"/>

<line x1="70" y1="130" x2="770.0" y2="130" stroke="#8B5CF6" stroke-width="1.4" opacity="0.5"/>
<circle cx="70.0" cy="130" r="4.5" fill="#A1A1AA"></circle><text x="70.0" y="114" text-anchor="middle" font-family="'JetBrains Mono','Fira Code','Consolas',monospace" font-size="11" fill="#A1A1AA" letter-spacing="1">EARTH</text><circle cx="210.0" cy="130" r="4.5" fill="#A1A1AA"></circle><text x="210.0" y="114" text-anchor="middle" font-family="'JetBrains Mono','Fira Code','Consolas',monospace" font-size="11" fill="#A1A1AA" letter-spacing="1">PROGRAMMING</text><circle cx="350.0" cy="130" r="4.5" fill="#A1A1AA"></circle><text x="350.0" y="114" text-anchor="middle" font-family="'JetBrains Mono','Fira Code','Consolas',monospace" font-size="11" fill="#A1A1AA" letter-spacing="1">WEB DEV</text><circle cx="490.0" cy="130" r="4.5" fill="#A1A1AA"></circle><text x="490.0" y="114" text-anchor="middle" font-family="'JetBrains Mono','Fira Code','Consolas',monospace" font-size="11" fill="#A1A1AA" letter-spacing="1">AI / ML</text><circle cx="630.0" cy="130" r="4.5" fill="#A1A1AA"></circle><text x="630.0" y="114" text-anchor="middle" font-family="'JetBrains Mono','Fira Code','Consolas',monospace" font-size="11" fill="#A1A1AA" letter-spacing="1">GENERATIVE AI</text><circle cx="770.0" cy="130" r="7" fill="#A855F7" filter="url(#jGlow)"><animate attributeName="r" values="7;9;7" dur="1.6s" repeatCount="indefinite"/></circle><text x="770.0" y="114" text-anchor="middle" font-family="'JetBrains Mono','Fira Code','Consolas',monospace" font-size="11" fill="#F5F5F7" letter-spacing="1">AUTOMATION</text>

<line x1="770.0" y1="130" x2="930.0" y2="130" stroke="#A855F7" stroke-width="1.4" stroke-dasharray="5 7" opacity="0.7">
  <animate attributeName="stroke-dashoffset" values="0;-24" dur="2s" repeatCount="indefinite"/>
</line>
<text x="930.0" y="114" text-anchor="middle" font-family="'JetBrains Mono','Fira Code','Consolas',monospace" font-size="11" fill="#A855F7" letter-spacing="1">???</text>
<circle cx="930.0" cy="130" r="4.5" fill="none" stroke="#A855F7" stroke-width="1.4"/>

<text x="34" y="188" font-family="'JetBrains Mono','Fira Code','Consolas',monospace" font-size="12" fill="#A1A1AA">CURRENT LOCATION &#8594; <tspan fill="#A855F7" font-weight="700">AI SYSTEMS + AUTOMATION</tspan></text>
<text x="34" y="212" font-family="'JetBrains Mono','Fira Code','Consolas',monospace" font-size="12" fill="#A1A1AA">DESTINATION &#8594; <tspan fill="#F5F5F7" font-weight="700">UNKNOWN (intentionally exploratory)</tspan></text>
</svg>