<svg viewBox="0 0 900 420" xmlns="http://www.w3.org/2000/svg">

  <defs>
    <linearGradient id="bgGrad" x1="0%" y1="0%" x2="100%" y2="100%">
      <stop offset="0%" stop-color="#050508"/>
      <stop offset="55%" stop-color="#0A0A0F"/>
      <stop offset="100%" stop-color="#12081f"/>
    </linearGradient>
    <filter id="tsGlow" x="-60%" y="-60%" width="220%" height="220%">
      <feGaussianBlur stdDeviation="6" result="blur"/>
      <feMerge>
        <feMergeNode in="blur"/>
        <feMergeNode in="SourceGraphic"/>
      </feMerge>
    </filter>
    <filter id="softGlow" x="-60%" y="-60%" width="220%" height="220%">
      <feGaussianBlur stdDeviation="2.4" result="b"/>
      <feMerge><feMergeNode in="b"/><feMergeNode in="SourceGraphic"/></feMerge>
    </filter>
    <linearGradient id="lineFade" x1="0%" y1="0%" x2="100%" y2="0%">
      <stop offset="0%" stop-color="#8B5CF6" stop-opacity="0"/>
      <stop offset="50%" stop-color="#A855F7" stop-opacity="1"/>
      <stop offset="100%" stop-color="#8B5CF6" stop-opacity="0"/>
    </linearGradient>
  </defs>
<rect width="900" height="420" rx="10" fill="url(#bgGrad)"/>
<circle cx="796.3" cy="168.8" r="1.15" fill="#F5F5F7" opacity="0.81"/>
<circle cx="139.6" cy="225.7" r="1.38" fill="#A855F7" opacity="0.27"/>
<circle cx="52.6" cy="16.7" r="1.1" fill="#A855F7" opacity="0.44"/>
<circle cx="837.6" cy="42.3" r="1.57" fill="#F5F5F7" opacity="0.56"/>
<circle cx="744.9" cy="193.3" r="1.27" fill="#A855F7" opacity="0.65"/>
<circle cx="455.9" cy="324.7" r="0.8" fill="#A855F7" opacity="0.32"/>
<circle cx="547.3" cy="193.7" r="0.95" fill="#A855F7" opacity="0.5"/>
<circle cx="185.7" cy="51.3" r="0.77" fill="#C4B5FD" opacity="0.65"/>
<circle cx="284.2" cy="315.6" r="1.39" fill="#F5F5F7" opacity="0.49"/>
<circle cx="674.1" cy="238.3" r="1.14" fill="#C4B5FD" opacity="0.36"/>
<circle cx="355.7" cy="309.5" r="0.87" fill="#C4B5FD" opacity="0.62"/>
<circle cx="169.5" cy="127.9" r="1.13" fill="#F5F5F7" opacity="0.86"/>
<circle cx="654.0" cy="85.4" r="0.76" fill="#F5F5F7" opacity="0.86"/>
<circle cx="584.3" cy="59.9" r="0.92" fill="#A855F7" opacity="0.76"/>
<circle cx="424.1" cy="294.4" r="0.66" fill="#A855F7" opacity="0.5"/>
<circle cx="343.5" cy="48.9" r="0.72" fill="#A855F7" opacity="0.33"/>
<circle cx="551.6" cy="347.7" r="1.06" fill="#A855F7" opacity="0.45"/>
<circle cx="351.2" cy="130.2" r="1.11" fill="#C4B5FD" opacity="0.41"/>
<circle cx="801.4" cy="385.4" r="1.23" fill="#F5F5F7" opacity="0.43"/>
<circle cx="672.4" cy="220.3" r="1.53" fill="#A855F7" opacity="0.71"/>
<circle cx="393.6" cy="407.7" r="1.51" fill="#F5F5F7" opacity="0.8"><animate attributeName="opacity" values="0.8;0.30000000000000004;0.8" dur="4.07s" repeatCount="indefinite"/></circle>
<circle cx="537.9" cy="89.3" r="0.91" fill="#C4B5FD" opacity="0.44"><animate attributeName="opacity" values="0.44;0.05;0.44" dur="3.71s" repeatCount="indefinite"/></circle>
<circle cx="661.6" cy="299.7" r="0.6" fill="#C4B5FD" opacity="0.4"><animate attributeName="opacity" values="0.4;0.05;0.4" dur="3.04s" repeatCount="indefinite"/></circle>
<circle cx="589.3" cy="172.5" r="0.66" fill="#C4B5FD" opacity="0.29"><animate attributeName="opacity" values="0.29;0.05;0.29" dur="3.34s" repeatCount="indefinite"/></circle>
<circle cx="231.6" cy="262.0" r="0.81" fill="#A855F7" opacity="0.33"/>
<circle cx="687.2" cy="140.6" r="0.89" fill="#C4B5FD" opacity="0.74"/>
<circle cx="880.5" cy="206.0" r="1.02" fill="#F5F5F7" opacity="0.43"/>
<circle cx="375.1" cy="328.8" r="0.97" fill="#A855F7" opacity="0.88"><animate attributeName="opacity" values="0.88;0.38;0.88" dur="3.83s" repeatCount="indefinite"/></circle>
<circle cx="713.4" cy="389.4" r="0.98" fill="#C4B5FD" opacity="0.33"><animate attributeName="opacity" values="0.33;0.05;0.33" dur="3.18s" repeatCount="indefinite"/></circle>
<circle cx="290.6" cy="250.7" r="1.23" fill="#A855F7" opacity="0.37"><animate attributeName="opacity" values="0.37;0.05;0.37" dur="3.39s" repeatCount="indefinite"/></circle>
<path d="M14,34 L14,14 L34,14" stroke="#A855F7" stroke-width="1.4" fill="none" opacity="0.85"/>
<path d="M866,14 L886,14 L886,34" stroke="#A855F7" stroke-width="1.4" fill="none" opacity="0.85"/>
<path d="M886,386 L886,406 L866,406" stroke="#A855F7" stroke-width="1.4" fill="none" opacity="0.85"/>
<path d="M34,406 L14,406 L14,386" stroke="#A855F7" stroke-width="1.4" fill="none" opacity="0.85"/>
<text x="34" y="40" font-family="'JetBrains Mono','Fira Code','Consolas',monospace" font-size="15" font-weight="700" fill="#F5F5F7" letter-spacing="4">T-SHAPED SIGNAL MAP</text>
<line x1="34" y1="52" x2="866" y2="52" stroke="url(#lineFade)" stroke-width="1"/>

<text x="450.0" y="72" text-anchor="middle" font-family="'JetBrains Mono','Fira Code','Consolas',monospace" font-size="11" fill="#A1A1AA" letter-spacing="3">BREADTH &#8212; WHERE CURIOSITY ROAMS</text>

<circle cx="108.3" cy="100" r="4.5" fill="#A855F7" filter="url(#softGlow)"/>
<text x="108.3" y="86" text-anchor="middle" font-family="'JetBrains Mono','Fira Code','Consolas',monospace" font-size="12" fill="#F5F5F7">Python</text>
<line x1="108.3" y1="105" x2="450.0" y2="150" stroke="#8B5CF6" stroke-width="1" opacity="0.3"/>
<circle cx="245.0" cy="100" r="4.5" fill="#A855F7" filter="url(#softGlow)"/>
<text x="245.0" y="86" text-anchor="middle" font-family="'JetBrains Mono','Fira Code','Consolas',monospace" font-size="12" fill="#F5F5F7">C++</text>
<line x1="245.0" y1="105" x2="450.0" y2="150" stroke="#8B5CF6" stroke-width="1" opacity="0.3"/>
<circle cx="381.7" cy="100" r="4.5" fill="#A855F7" filter="url(#softGlow)"/>
<text x="381.7" y="86" text-anchor="middle" font-family="'JetBrains Mono','Fira Code','Consolas',monospace" font-size="12" fill="#F5F5F7">Web</text>
<line x1="381.7" y1="105" x2="450.0" y2="150" stroke="#8B5CF6" stroke-width="1" opacity="0.3"/>
<circle cx="518.3" cy="100" r="4.5" fill="#A855F7" filter="url(#softGlow)"/>
<text x="518.3" y="86" text-anchor="middle" font-family="'JetBrains Mono','Fira Code','Consolas',monospace" font-size="12" fill="#F5F5F7">APIs</text>
<line x1="518.3" y1="105" x2="450.0" y2="150" stroke="#8B5CF6" stroke-width="1" opacity="0.3"/>
<circle cx="655.0" cy="100" r="4.5" fill="#A855F7" filter="url(#softGlow)"/>
<text x="655.0" y="86" text-anchor="middle" font-family="'JetBrains Mono','Fira Code','Consolas',monospace" font-size="12" fill="#F5F5F7">Automation</text>
<line x1="655.0" y1="105" x2="450.0" y2="150" stroke="#8B5CF6" stroke-width="1" opacity="0.3"/>
<circle cx="791.7" cy="100" r="4.5" fill="#A855F7" filter="url(#softGlow)"/>
<text x="791.7" y="86" text-anchor="middle" font-family="'JetBrains Mono','Fira Code','Consolas',monospace" font-size="12" fill="#F5F5F7">AI</text>
<line x1="791.7" y1="105" x2="450.0" y2="150" stroke="#8B5CF6" stroke-width="1" opacity="0.3"/>

<line x1="450.0" y1="150" x2="450.0" y2="200" stroke="#A855F7" stroke-width="2">
  <animate attributeName="opacity" values="0.5;1;0.5" dur="2.4s" repeatCount="indefinite"/>
</line>
<circle cx="450.0" cy="150" r="4" fill="#A855F7"/>


<rect x="310.0" y="200" width="280" height="38" rx="6" fill="#ffffff" opacity="0.04" stroke="#8B5CF6" stroke-width="1"/>
<rect x="310.0" y="200" width="4" height="38" fill="#A855F7"/>
<text x="450.0" y="224" text-anchor="middle" font-family="'JetBrains Mono','Fira Code','Consolas',monospace" font-size="14" font-weight="700" fill="#F5F5F7" letter-spacing="2">AI SYSTEMS</text>
<rect x="310.0" y="254" width="280" height="38" rx="6" fill="#ffffff" opacity="0.04" stroke="#8B5CF6" stroke-width="1"/>
<rect x="310.0" y="254" width="4" height="38" fill="#A855F7"/>
<text x="450.0" y="278" text-anchor="middle" font-family="'JetBrains Mono','Fira Code','Consolas',monospace" font-size="14" font-weight="700" fill="#F5F5F7" letter-spacing="2">AUTOMATION</text>
<rect x="310.0" y="308" width="280" height="38" rx="6" fill="#ffffff" opacity="0.04" stroke="#8B5CF6" stroke-width="1"/>
<rect x="310.0" y="308" width="4" height="38" fill="#A855F7"/>
<text x="450.0" y="332" text-anchor="middle" font-family="'JetBrains Mono','Fira Code','Consolas',monospace" font-size="14" font-weight="700" fill="#F5F5F7" letter-spacing="2">BACKEND</text>
<text x="450.0" y="384" text-anchor="middle" font-family="'JetBrains Mono','Fira Code','Consolas',monospace" font-size="11" fill="#A1A1AA" letter-spacing="3">DEPTH &#8212; WHERE I ACTUALLY BUILD</text>
</svg>